<?xml version="1.0" encoding="utf-8"?>
<!-- Generator: Adobe Illustrator 16.0.4, SVG Export Plug-In . SVG Version: 6.00 Build 0)  -->
<!DOCTYPE svg PUBLIC "-//W3C//DTD SVG 1.1//EN" "http://www.w3.org/Graphics/SVG/1.1/DTD/svg11.dtd">
<svg version="1.1" id="Capa_1" xmlns="http://www.w3.org/2000/svg" xmlns:xlink="http://www.w3.org/1999/xlink" x="0px" y="0px"
	 width="216px" height="146px" viewBox="0 0 216 146" enable-background="new 0 0 216 146" xml:space="preserve">
<path fill="#F4F2E9" d="M163.686,17.313c-4.588-4.589-10.115-6.884-16.578-6.884H68.893c-6.463,0-11.99,2.295-16.58,6.884
	c-4.589,4.59-6.884,10.117-6.884,16.58v78.214c0,6.463,2.295,11.99,6.884,16.58c4.59,4.59,10.117,6.885,16.58,6.885h78.214
	c6.463,0,11.99-2.295,16.578-6.885c4.59-4.59,6.885-10.117,6.885-16.58V33.893C170.57,27.43,168.275,21.902,163.686,17.313z"/>
<path fill="#714330" d="M141.159,58.58c0.055,0.489,0.082,1.221,0.082,2.2c0,4.562-0.666,9.139-1.996,13.728
	c-1.33,4.59-3.367,8.989-6.11,13.199c-2.742,4.209-6.015,7.93-9.816,11.161c-3.803,3.231-8.361,5.812-13.688,7.739
	c-5.322,1.93-11.026,2.894-17.109,2.894c-9.45,0-18.195-2.554-26.234-7.658c1.304,0.162,2.662,0.244,4.074,0.244
	c7.876,0,14.964-2.444,21.265-7.333c-3.693-0.054-6.993-1.193-9.899-3.422c-2.906-2.227-4.929-5.051-6.07-8.473
	c1.412,0.217,2.471,0.324,3.177,0.324c1.195,0,2.58-0.219,4.155-0.65c-3.965-0.762-7.305-2.729-10.021-5.907
	c-2.716-3.177-4.074-6.803-4.074-10.876v-0.163c2.878,1.357,5.594,2.063,8.147,2.118c-4.943-3.314-7.414-8.066-7.414-14.258
	c0-3.042,0.787-5.92,2.362-8.636c4.291,5.269,9.506,9.478,15.643,12.628c6.137,3.15,12.71,4.916,19.716,5.296
	c-0.271-1.032-0.407-2.336-0.407-3.911c0-4.726,1.669-8.758,5.01-12.099c3.341-3.34,7.374-5.011,12.099-5.011
	c4.998,0,9.153,1.793,12.467,5.378c3.748-0.706,7.391-2.092,10.918-4.155c-1.355,4.181-3.885,7.359-7.576,9.532
	c3.529-0.49,6.814-1.413,9.855-2.771C147.434,53.175,144.581,56.135,141.159,58.58z"/>
</svg>
